<?xml version="1.0" encoding="utf-8"?>
<!-- Generator: Adobe Illustrator 19.0.0, SVG Export Plug-In . SVG Version: 6.00 Build 0)  -->
<svg version="1.1" id="Layer_1" xmlns="http://www.w3.org/2000/svg" xmlns:xlink="http://www.w3.org/1999/xlink" x="0px" y="0px"
	 viewBox="-290 381 30 32" style="enable-background:new -290 381 30 32;" xml:space="preserve">
<style type="text/css">
	.st0{fill:#D9AC28;}
</style>
<title>star</title>
<path class="st0" d="M-260.1,393.8c0,0.3-0.2,0.5-0.5,0.9l-6.5,6.3l1.5,8.9c0,0.1,0,0.2,0,0.4c0,0.3-0.1,0.5-0.2,0.6
	s-0.3,0.3-0.5,0.3c-0.2,0-0.5-0.1-0.7-0.2l-8-4.2l-8,4.2c-0.3,0.1-0.5,0.2-0.7,0.2c-0.3,0-0.4-0.1-0.6-0.3s-0.2-0.4-0.2-0.6
	c0-0.1,0-0.2,0-0.4l1.5-8.9l-6.5-6.3c-0.3-0.3-0.4-0.6-0.4-0.9c0-0.4,0.3-0.7,1-0.8l9-1.3l4-8.1c0.2-0.5,0.5-0.7,0.9-0.7
	s0.6,0.2,0.9,0.7l4,8.1l9,1.3C-260.5,393.1-260.1,393.4-260.1,393.8z"/>
</svg>
