<?xml version="1.0" encoding="utf-8"?>
<!-- Generator: Adobe Illustrator 24.1.2, SVG Export Plug-In . SVG Version: 6.00 Build 0)  -->
<svg version="1.1" id="Layer_1" xmlns="http://www.w3.org/2000/svg" xmlns:xlink="http://www.w3.org/1999/xlink" x="0px" y="0px"
	 viewBox="0 0 115 54" style="enable-background:new 0 0 115 54;" xml:space="preserve">
<style type="text/css">
	.st0{fill:#E83A15;}
	.st1{fill:#EDEDED;}
</style>
<g>
	<path class="st0" d="M75.7,27.2c-9.5,0-18.9,0-28.3,0c0,1.5,0.8,2,2.2,1.8c1.1-0.1,2.2,0,3.4,0c0,0.8,0,1.4,0,2.4
		c-1.3,0-2.7,0-4.1,0c-0.4,0-1,0.3-1.1,0.6c-1,2.3-2.6,3.6-5.1,3.6c-2.6,0.1-4.2-1.4-5.4-3.8c-0.3,0.4-0.5,0.7-0.7,1
		c-1.1,1.9-2.8,2.9-5.1,2.8c-2.2-0.1-3.9-1.2-4.7-3.3c-0.3-0.8-0.8-1-1.5-1c-2.4,0-4.8,0-7.2,0c0-0.8,0-1.4,0-2.4
		c2.3,0,4.6-0.1,6.9,0c1.3,0.1,2-0.4,2.1-1.8c-2.9,0-5.9,0-8.9,0c0-0.8,0-1.5,0-2.4c23.5,0,47.1,0,70.8,0c0-6.9,0-13.6,0-20.4
		c-0.5,0-1-0.1-1.6-0.1c-21.8,0-43.5,0-65.3,0c-0.7,0-1.5-0.2-1.9,0.9c-0.1,0.3-1.3,0.2-2.1,0.3c0-1.3,0-2.3,0-3.5
		c24.4,0,48.8,0,73.2,0c0,8.4,0,16.7,0,25.1c-2,0-3.8,0-5.8,0c0.1,1.4,0.6,2,2,1.9c2.8-0.1,5.6,0,8.6,0C96,28.4,96,28,95.8,27.8
		c-1.4-2.2-1.4-4.7-1.4-7.2c0.1-5.5,0-10.9,0-16.4c0-0.5,0.1-1,0.1-1.5c6.9-0.2,12.6,2,16.8,7.4c0.8,1,0.9,2.7,1.4,4
		c0.5,1.7,0.4,3.7,2.1,4.9c0.3,0.2,0.3,0.9,0.3,1.4c0,2.4,0,4.8,0,7.1c0,2.4-1.2,3.7-3.7,3.6c-1.6-0.1-2.6,0.2-3.3,1.8
		c-0.9,1.9-2.8,2.6-4.9,2.5s-3.7-1.2-4.5-3.1c-0.4-0.9-0.9-1.2-1.9-1.2c-3.2,0.1-6.4,0-9.7,0.1c-0.5,0-1.2,0.4-1.4,0.7
		c-1,3-4.6,4.3-7.4,3.1s-3.8-4.1-2.7-7.5C75.7,27.6,75.7,27.5,75.7,27.2z M96.9,5.3c-0.1,0.3-0.1,0.5-0.1,0.8
		c0,5.9-0.1,11.8,0.1,17.7c0,1.3,0.9,2.7,1.5,4.2c0.4-0.6,0.6-0.8,0.8-1c2.4-3.2,7.3-3,9.1,0.5c0.8,1.5,1.7,1.6,3,1.5
		c1.2,0,1.6-0.6,1.4-1.8c-0.5-0.1-0.9-0.2-1.3-0.2c0-0.8,0-1.4,0-2.2c1.2,0.1,1.4-0.6,1.4-1.6c0-2.3,0-2.3-2.3-2.6
		c-2.7-0.4-5.4-0.9-8.1-1.3c0-1.9,0-3.6,0-5.4c0.8,0,1.4,0,2.3,0c0,0.9-0.1,1.6,0,2.4c0.1,0.4,0.4,1,0.7,1c1.8,0.4,3.7,0.6,5.7,1
		c-0.5-1.9-0.9-3.7-1.3-5.4c-0.5-1.9-0.8-2.1-2.7-2.2c-2.5,0-4.9,0-7.4,0c0-0.9,0-1.5,0-2.4c2,0,3.9,0,5.8,0
		C102.9,6.4,100.1,5.5,96.9,5.3z M31.7,33.2c1.7,0,3-1.2,3.1-2.9c0.1-1.8-1.3-3.2-3-3.2s-3,1.3-3,3C28.7,31.8,30,33.2,31.7,33.2z
		 M80.6,27.1c-1.6,0-3.1,1.3-3.1,3c-0.1,1.6,1.3,3.1,2.9,3.1c1.7,0.1,3.2-1.3,3.2-3S82.2,27.2,80.6,27.1z M106.5,30.1
		c0-1.7-1.4-3-3.1-3s-3.1,1.5-3.1,3.2c0.1,1.6,1.5,3,3.1,2.9C105.2,33.2,106.6,31.8,106.5,30.1z M42.5,33.2c1.7,0,3.1-1.4,3.1-3.1
		s-1.4-3-3-3c-1.7,0-3.1,1.3-3.1,3.1C39.5,31.9,40.8,33.2,42.5,33.2z"/>
	<path class="st0" d="M31.9,13.8c9.4,0,18.7,0,28.1,0c0.4,0,1-0.1,1.3,0.1c0.4,0.3,0.9,0.8,0.9,1.3c0,0.3-0.6,0.7-1,1
		c-0.3,0.1-0.7,0-1,0c-18.8,0-37.6,0-56.3,0c-0.3,0-0.8,0.1-1,0c-0.4-0.2-1.1-0.7-1-1c0-0.5,0.5-1,0.9-1.3c0.4-0.2,1-0.1,1.5-0.1
		C13.3,13.8,22.6,13.8,31.9,13.8z"/>
	<path class="st0" d="M30.5,7.8c5.6,0,11.3,0,16.9,0c0.5,0,1.1-0.1,1.5,0.1C49.4,8.1,50,8.6,50,9s-0.6,0.9-1,1.1
		c-0.3,0.2-0.8,0.1-1.2,0.1c-11.5,0-23,0-34.5,0c-0.9,0-2.4,0.5-2.4-1.2s1.4-1.2,2.4-1.2C19,7.8,24.8,7.8,30.5,7.8z"/>
	<path class="st0" d="M26.4,22.1c-3.6,0-7.2,0-10.8,0c-0.9,0-1.8,0-1.8-1.2c0-1.1,0.9-1.2,1.7-1.2c7.3,0,14.6,0,22,0
		c0.9,0,1.8,0.1,1.8,1.2c0,1.2-1,1.1-1.9,1.1C33.8,22.1,30.1,22.1,26.4,22.1z"/>
</g>
<g>
	<path class="st1" d="M0.5,39.9h4.7c1.4,0,2.1,0.6,2.1,1.9v3.5c0,0.8-0.3,1.2-0.9,1.4C7,46.8,7.3,47.3,7.3,48v3.7
		c0,1.3-0.7,1.9-2.1,1.9H0.5V39.9z M5.3,45.2V42c0-0.3,0-0.4-0.1-0.5s-0.3-0.1-0.5-0.1H2.5v4.4h2.2c0.3,0,0.4,0,0.5-0.1
		C5.3,45.6,5.3,45.4,5.3,45.2z M5.3,51.3V48c0-0.3,0-0.4-0.1-0.5s-0.3-0.1-0.5-0.1H2.5V52h2.2c0.3,0,0.4,0,0.5-0.1
		C5.3,51.8,5.3,51.6,5.3,51.3z"/>
	<path class="st1" d="M13.9,39.9h2v11.8c0,1.3-0.7,1.9-2.1,1.9h-2.4c-1.4,0-2.1-0.6-2.1-1.9V39.9h2v11.4c0,0.3,0,0.4,0.1,0.5
		s0.3,0.1,0.5,0.1h1.2c0.3,0,0.5,0,0.5-0.1c0.1-0.1,0.1-0.3,0.1-0.5V39.9H13.9z"/>
	<path class="st1" d="M20.1,48v5.5h-2V39.9h4.5c1.4,0,2,0.6,2,1.9v4.3c0,1.1-0.5,1.7-1.5,1.9l2.2,5.6h-2.1L21.1,48H20.1z M20.1,41.5
		v5H22c0.3,0,0.4,0,0.5-0.1s0.1-0.3,0.1-0.5v-3.7c0-0.3,0-0.4-0.1-0.5s-0.3-0.1-0.5-0.1h-1.9V41.5z"/>
	<path class="st1" d="M26.8,39.9h4.7c1.4,0,2.1,0.6,2.1,1.9v3.5c0,0.8-0.3,1.2-0.9,1.4c0.6,0.1,0.9,0.6,0.9,1.3v3.7
		c0,1.3-0.7,1.9-2.1,1.9h-4.7V39.9z M31.6,45.2V42c0-0.3,0-0.4-0.1-0.5s-0.3-0.1-0.5-0.1h-2.2v4.4H31c0.3,0,0.4,0,0.5-0.1
		C31.5,45.6,31.6,45.4,31.6,45.2z M31.6,51.3V48c0-0.3,0-0.4-0.1-0.5s-0.3-0.1-0.5-0.1h-2.2V52H31c0.3,0,0.4,0,0.5-0.1
		C31.5,51.8,31.6,51.6,31.6,51.3z"/>
	<path class="st1" d="M40.7,53.5l-0.5-3.2h-2.9l-0.5,3.2h-2l2.4-13.7h2.9l2.6,13.7H40.7z M37.5,48.8h2.4l-1.2-7.2L37.5,48.8z"/>
	<path class="st1" d="M49,39.9h1.8v13.7h-2l-2.9-9.9v9.9h-1.8V39.9h2.1l2.8,9.6C49,49.5,49,39.9,49,39.9z"/>
	<path class="st1" d="M53.1,53.5V39.9h2v13.7h-2V53.5z M60.1,39.9l-2.9,6.9l2.9,6.8H58l-2.8-6.8l2.8-6.9H60.1z"/>
	<path class="st1" d="M66.3,53.5h-1.7V39.9h2.2l2.3,8.5l2.3-8.5h2.2v13.7h-1.7v-10l-1.9,7h-1.8l-1.9-7V53.5z"/>
	<path class="st1" d="M77.8,39.9h2.4c1.4,0,2,0.6,2,1.9v9.8c0,1.3-0.7,1.9-2,1.9h-2.4c-1.4,0-2.1-0.6-2.1-1.9v-9.8
		C75.8,40.5,76.5,39.9,77.8,39.9z M80.3,51.3v-9.2c0-0.3,0-0.4-0.1-0.5s-0.3-0.1-0.5-0.1h-1.3c-0.3,0-0.4,0-0.5,0.1
		s-0.1,0.3-0.1,0.5v9.2c0,0.3,0,0.4,0.1,0.5s0.3,0.1,0.5,0.1h1.3c0.3,0,0.4,0,0.5-0.1S80.3,51.6,80.3,51.3z"/>
	<path class="st1" d="M89.1,39.9h2l-2.5,13.7h-2.8l-2.5-13.7h2l1.8,11.9L89.1,39.9z"/>
	<path class="st1" d="M94.4,51.9h4v1.6h-5.9V39.9h5.8v1.6h-3.8v4.2h3.1v1.6h-3.1L94.4,51.9L94.4,51.9z"/>
	<path class="st1" d="M101.9,48v5.5h-2V39.9h4.5c1.4,0,2,0.6,2,1.9v4.3c0,1.1-0.5,1.7-1.5,1.9l2.2,5.6H105l-2.1-5.5h-1V48z
		 M101.9,41.5v5h1.9c0.3,0,0.4,0,0.5-0.1s0.1-0.3,0.1-0.5v-3.7c0-0.3,0-0.4-0.1-0.5s-0.3-0.1-0.5-0.1h-1.9V41.5z"/>
	<path class="st1" d="M112.5,51.3V48c0-0.3,0-0.4-0.1-0.5s-0.3-0.1-0.5-0.1h-1.6c-1.3,0-2-0.6-2-1.9v-3.6c0-1.3,0.7-1.9,2-1.9h2.1
		c1.4,0,2,0.6,2,1.9v2h-2v-1.7c0-0.3,0-0.4-0.1-0.5s-0.3-0.1-0.5-0.1h-0.9c-0.3,0-0.4,0-0.5,0.1s-0.1,0.3-0.1,0.5v3
		c0,0.3,0,0.4,0.1,0.5s0.3,0.1,0.5,0.1h1.6c1.3,0,2,0.6,2,1.9v3.9c0,1.3-0.7,1.9-2.1,1.9h-2.1c-1.4,0-2-0.6-2-1.9v-2h2v1.7
		c0,0.3,0,0.4,0.1,0.5s0.3,0.1,0.5,0.1h0.9c0.3,0,0.4,0,0.5-0.1S112.5,51.6,112.5,51.3z"/>
</g>
</svg>
