<?xml version="1.0" encoding="utf-8"?>
<!-- Generator: Adobe Illustrator 24.1.2, SVG Export Plug-In . SVG Version: 6.00 Build 0)  -->
<svg version="1.1" id="Layer_1" xmlns="http://www.w3.org/2000/svg" xmlns:xlink="http://www.w3.org/1999/xlink" x="0px" y="0px"
	 viewBox="0 0 115 54" style="enable-background:new 0 0 115 54;" xml:space="preserve">
<style type="text/css">
	.st0{fill:#E83A15;}
	.st1{fill:#FFFFFF;}
	.st2{fill:#00045F;}
</style>
<path d="M1000.1,108.9c0,30.1,0,60,0,90.5c-6.5,0-12.9,0-19.5,0c3.5,8.9,3.5,8.8,11.9,8.8c6,0,12,0,18.7,0c0-24.1,0-47.8,0-72
	c8.8,0,17,0,25.1,0c5.7,0,11.3,0,17,0c7.9,0,12.8,3.9,14.7,11.6c1.2,4.7,2.2,9.4,3.4,14.1c1.1,4.1,1.6,8.4,5.6,11.3
	c1.2,0.9,1.5,3.6,1.5,5.5c0.2,8.2,0.2,16.3,0.1,24.5c-0.1,8.9-4.2,13.3-13.2,13.1c-5.3-0.1-8.6,0.9-11.2,6.2c-3,6.1-9.2,8.6-16,8.2
	c-6.9-0.4-12.6-3.8-15.4-10.3c-1.4-3.3-3.2-4-6.4-4c-9.2,0.2-18.3,0.2-27.5,0c-3.2-0.1-5,0.8-6.4,3.9c-3.1,6.8-8.9,10.4-16.3,10.4
	c-7.6,0-13.5-3.6-16.7-10.7c-1.1-2.4-2.3-3.5-5-3.8c-1.8-0.2-4.3-2.2-4.7-3.8c-0.7-3.1,1.9-4.3,4.8-4.1c5.9,0.3,4.4-5.7,8.2-8.5
	c-26.4,0-51.6,0-77.6,0c4.3,5.9,6,12.2,3.3,18.5c-1.6,3.8-4.6,7.5-8,9.8c-8.7,5.7-17.3,3-26.4-7.5c-5.5,8-12.6,12.3-22.5,9.3
	c-5-1.5-8.9-4.7-10.9-9.6c-1.2-3-2.9-4.1-6-3.8c-2.1,0.2-4.5,0.5-6.4-0.2c-1.6-0.6-3.4-2.5-3.7-4.1c-0.2-1,2.2-2.6,3.6-3.7
	c0.5-0.4,1.6-0.3,2.4-0.1c6.8,1.3,10.5-1.7,12-8.7c-5.3,0-10.5,0-16,0c0-2.8,0-5.1,0-8.2c2.2,0,4.2,0,6.3,0c61,0,122,0,183,0
	c6.4,0,6.4,0,6.4-6.6c0-20.3,0-40.7,0-61c0-2.1,0-4.3,0-6.8c-62.7,0-125,0-187.8,0c-0.2,2.6-0.3,5.3-0.5,8.5c-2.4,0-4.6,0-7.3,0
	c0-5.3,0-10.7,0-16.6C864.4,108.9,932.1,108.9,1000.1,108.9z M1070.4,180.5c-2.2,0-4,0-5.8,0c-7.3,0-14.7,0.2-22-0.2
	c-1.6-0.1-3.1-2.5-4.6-3.9c1.4-1.3,2.7-3.1,4.4-3.9c1.4-0.7,3.3-0.2,4.9-0.2c5.9,0,11.9,0,18.4,0c-1.3-5.3-2.3-9.8-3.5-14.3
	c-3.7-14.5-2-14-17.7-13.9c-8.3,0.1-16.6,0-24.7,0c0,21.7,0,42.7,0,63.6c1.6-1.1,2.1-2.4,2.8-3.6c3.2-6,8-9.7,15-10.2
	c7.5-0.5,14.2,2,17.1,8.8c2.7,6.2,6.8,5.6,11.6,5.3c3-0.1,4.5-1.6,4-5c-1.9-0.2-3.6-0.4-5.5-0.6c0-2.6,0-4.8,0-7.3
	c2-0.2,3.7-0.4,5.7-0.6C1070.4,190,1070.4,185.7,1070.4,180.5z M1049.5,212.2c0-5.4-4.6-10.1-10-10.3c-5.5-0.2-10.6,4.8-10.6,10.4
	c0,5.3,4.8,10.2,10.1,10.4C1044.4,222.8,1049.4,217.8,1049.5,212.2z M861.3,222.6c5.5-0.1,10.3-5.1,10.2-10.7
	c-0.2-5.5-4.8-10-10.3-10c-5.4,0-10.1,4.8-10.2,10.2C850.9,217.7,855.8,222.7,861.3,222.6z M817.1,212.3c0.1,5.6,4.7,10.3,10.1,10.3
	c5.3,0,10.3-5,10.3-10.3c0.1-5.6-5-10.6-10.6-10.4C821.4,202.1,817,206.6,817.1,212.3z M976.4,212.1c-0.1-5.4-4.9-10.2-10.3-10.2
	c-5.5,0-10.1,4.6-10.2,10.2c-0.1,5.7,4.9,10.7,10.5,10.5C971.7,222.5,976.5,217.4,976.4,212.1z"/>
<path d="M436.2,214.7c0-2.7,0-4.9,0-8c3.5,0,7-0.4,10.4,0.1c6.7,0.9,11.3-1,12.7-8.8c-7.3,0-14.8,0-22.6,0c0-3,0-5.2,0-8.2
	c42.9,0,85.8,0,128.9,0c0-27.5,0-54.3,0-81.5c-40.3,0-80.5,0-121.3,0c0,5.3,0,10.5,0,16.1c-2.8,0-5,0-7.7,0c0-8,0-15.7,0-23.9
	c45.5,0,91,0,137.3,0c0,11.3,0,22.6,0,34.5c12.2,0,23.6,0,35.1,0c9.7,0,13.1,2.6,15.4,12c0.9,3.7,2.2,7.4,2.7,11.2
	c0.9,6.5,3.6,11.3,9.1,15.2c2,1.4,3,5.1,3.2,7.8c0.4,7.5,0.2,15,0.1,22.5c0,6.8-3.4,10.5-10.1,11.2c-1.2,0.1-2.4,0.2-3.5,0
	c-4.6-0.7-7.3,0.7-9.5,5.3c-3.1,6.6-9.3,9.2-16.6,8.9c-7.2-0.3-12.5-3.8-15.3-10.2c-1.5-3.5-3.5-4.1-6.8-4.1c-27,0.1-54,0.1-81,0
	c-3.2,0-4.9,0.7-6.4,3.9c-3.2,7-8.9,10.5-16.7,10.4c-7.6-0.1-13.2-3.6-16.3-10.4c-1.4-3.2-3.2-4.1-6.4-3.9
	C446.2,214.8,441.4,214.7,436.2,214.7z M574.2,206.1c5.4,1.3,8.4,0.4,11.1-4.8c6.3-12.2,24.3-12,31.3-0.2c3.2,5.3,6,6.8,11.7,5.3
	c1.4-0.4,2.4-2.2,4.3-4.2c-3.5-0.5-5.2-0.8-6.9-1.1c0-2.5,0-4.8,0-7c2.1-0.4,3.8-0.7,5.5-1c0-4.2,0-8.2,0-12.5
	c-11.1,0-21.9,0-32.7,0c-3,0-6,0-6-4c0-4.2,3.3-3.9,6.1-3.9c7.8,0,15.5,0,23.8,0c-2.2-9.2-4.1-17.8-6.5-26.2
	c-0.4-1.6-2.9-3.6-4.5-3.6c-12.3-0.3-24.6-0.2-37.2-0.2C574.2,164.2,574.2,185,574.2,206.1z M488.4,198c1.5,7.5,5.9,9,12.6,8.9
	c19.4-0.5,38.9-0.2,58.4-0.2c1.9,0,3.9,0,6.1,0c0-3.3,0-5.8,0-8.7C539.6,198,514,198,488.4,198z M600.9,200.4
	c-5.6,0-10.5,4.9-10.4,10.5c0.1,5.4,4.8,10,10.3,10.1c5.5,0.1,10.6-5.1,10.5-10.5C611.1,205.1,606.2,200.4,600.9,200.4z
	 M484.2,210.5c-0.1-5.4-4.8-10.1-10.2-10.1c-5.7,0-10.6,4.9-10.5,10.4c0.1,5.5,5.3,10.4,10.8,10.1
	C479.7,220.7,484.2,215.9,484.2,210.5z"/>
<path d="M872.4,433.3c0-3.1,0-5.2,0-7.7c4.1-0.6,9.4,0.5,9.1-6.9c-3,0-6.3-0.1-9.5,0c-2.7,0.1-4-0.8-3.9-3.7c0.1-4.5,0-8.9,0-13.8
	c2.7,0,4.9,0,7.2,0c0.2,0.2,0.5,0.4,0.6,0.7c0.9,8.8,0.9,8.8,9.9,8.8c31.3,0,62.6,0,94,0c2,0,3.9,0,6.4,0c0-28,0-55.5,0-83.7
	c-2.1,0-4,0-6,0c-31.5,0-63,0-94.5,0c-8.8,0-8.8,0-10.2,8.6c-2.2,0-4.4,0-7,0c0-5.3,0-10.5,0-16.1c41.9,0,83.6,0,126.1,0
	c0,11.8,0,23.5,0,35.7c9.6,0,18.4,0.1,27.2,0c8.9-0.2,15.4,3.2,19.3,11.4c1.8,3.8,3.9,7.3,5.7,11.1c3.6,8,8.2,15,16.3,19.4
	c5.5,3,8,8.2,7.6,14.7c-0.2,3.7,0,7.3-0.1,11c-0.1,7-2.9,10.2-9.9,10.3c-3.4,0-4.9,1.2-6.3,4.2c-3.1,6.9-8.9,10.3-16.3,10.4
	c-7.4,0.1-13.4-3.3-16.4-10.2c-1.6-3.6-3.6-4.3-7.2-4.3c-31.2,0.1-62.3,0.1-93.5,0c-3.4,0-5.3,0.7-6.8,4.2
	c-2.7,6.6-8.4,9.9-15.3,10.3c-7,0.4-13.1-2.3-16.4-8.5C880.3,434.8,878.1,431.9,872.4,433.3z M994.8,425.2c6.3,0,12-0.2,17.6,0.1
	c4.7,0.3,8.5-0.1,9.9-5.5c0.3-1.2,1.4-2.2,2.4-3.2c9.2-9.6,24.4-6.9,30.2,5.6c1.3,2.8,3.1,3.7,5.3,2.8c1.2-0.5,2-2.8,2.4-4.4
	c0.4-1.7,0.1-3.6,0.1-5.5c-2.6-0.3-4.7-0.5-6.8-0.8c0-2.6,0-4.9,0-7c1.6-0.5,3-0.8,5.2-1.4c-6.4-4.6-11.2-9.6-19.5-8.9
	c-8.9,0.7-18,0.3-27,0c-1.7-0.1-4.4-2.1-4.7-3.7c-0.6-3,1.9-4.2,4.8-4.1c1.8,0.1,3.7,0,5.5,0c7.4,0,14.8,0,23.3,0
	c-3.6-6.9-6.8-12.9-9.7-19c-2.3-4.9-6-6.9-11.1-6.9c-6.3,0-12.7,0-19,0c-2.9,0-5.8,0-8.8,0C994.8,384.3,994.8,404.4,994.8,425.2z
	 M986.4,419c-24.4,0-48.3,0-72.2,0c0.4,4.7,2.3,6.4,7,6.3c20-0.3,39.9-0.1,59.9-0.1c1.8,0,3.5-0.2,5.3-0.3
	C986.4,422.7,986.4,421,986.4,419z M908.3,429.4c0.1-5.2-4.7-10.3-10-10.5c-5.5-0.2-10.6,4.7-10.7,10.2c-0.1,5.3,4.6,10.3,9.9,10.5
	C902.8,439.8,908.1,434.8,908.3,429.4z M1048.4,429c-0.2-5.3-5.3-10.2-10.5-10.1c-5.5,0.1-10.5,5.4-10.2,10.9
	c0.3,5.4,5.5,10.1,10.8,9.8C1043.8,439.3,1048.5,434.3,1048.4,429z"/>
<path d="M794.7-4.3c0-2.9,0-5.1,0-8c6.8,0,13.3,0,19.9,0c5.7,0,5.7,0,7.5-6.7c-9.2,0-18.2,0-27.5,0c0-2.9,0-5.1,0-7.9
	c39.5,0,78.8,0,118.4,0c0-27.6,0-54.6,0-82.1c-36.8,0-73.5,0-110.7,0c0,5.5,0,10.7,0,16.3c-2.8,0-5,0-7.6,0c0-8.2,0-16.2,0-24.7
	c42,0,83.9,0,126.5,0c0,13.6,0,27.1,0,41.3c6.6,0,12.5,0.1,18.5,0c7.3-0.2,13.3,2.2,18.3,7.6c3.6,3.9,7.6,7.5,11,11.6
	c5.8,6.9,13.4,11.4,21,15.8c6.7,3.9,10.2,9.3,9.5,17.2c-0.2,2.5,0,5,0,7.5c0,7.2-2.1,9.8-9.2,11.2c-1.8,0.4-3.7,0.2-5.4,0.8
	c-1.8,0.6-4,1.4-5,2.9c-7.7,11.9-22.3,11.8-29.9-0.2c-0.8-1.3-3-2.6-4.6-2.6c-29.7-0.2-59.3-0.2-89,0c-1.7,0-3.9,1.5-4.9,3
	c-7.2,11.6-22.2,11.6-29.6,0c-1-1.5-3.5-2.9-5.3-3C809.5-4.5,802.3-4.3,794.7-4.3z M990.8-28.3c0.4-0.6,0.8-1.3,1.1-1.9
	c-1.7-1-3.4-1.9-5-3.1c-8.9-6.9-18.6-10.6-30-9c-3.8,0.5-7.6,0.1-11.5,0.1c-3,0-6.1-0.2-5.9-4.2c0.1-3.7,3.1-3.7,5.9-3.7
	c5.7,0,11.5,0,18.6,0c-9.1-9.5-15.3-20.6-30-18c-2.1,0.4-4.3,0.2-6.5,0c-4.4-0.5-6.1,0.8-6,5.7c0.3,14.8,0,29.6-0.1,44.4
	c0,1.8,0.2,3.5,0.3,5.7c7.8,0,15.1-0.1,22.4,0c2.8,0.1,4.4-0.7,5.6-3.6c2.7-6.6,8-10,15.2-10c7.2,0,12.3,3.6,15.4,10
	c1.6,3.4,7.6,4.8,10.1,2.1c1.1-1.2,0.9-3.5,1.4-5.5c-2.1-0.5-3.5-0.8-5.1-1.2C987.1-23.8,984.4-28.1,990.8-28.3z M913.2-18.8
	c-20.7,0-41.1,0-61.7,0c0.5,4.9,2.7,6.6,7.5,6.5c15-0.3,30-0.1,45-0.1c3,0,5.9,0,9.2,0C913.2-14.7,913.2-16.4,913.2-18.8z
	 M845.4-9.5c-0.1-4.5-4.3-8.5-8.9-8.3c-4.7,0.2-8.4,4.1-8.3,8.8c0.1,4.7,4,8.4,8.8,8.3C841.7-0.9,845.6-4.9,845.4-9.5z M964.6-0.8
	c4.8,0.1,8.7-3.6,8.9-8.3c0.2-4.7-3.7-8.7-8.3-8.8c-4.7-0.1-8.7,3.6-8.9,8.3C956.1-5,960-0.9,964.6-0.8z"/>
<path d="M506.3-82.1c2.3-5.4,5.8-7.9,10.7-7.9c26.8,0,53.6-0.1,80.5,0.1c7.9,0,14.8,2.7,20.5,8.8c7.4,7.9,15.6,15,22.9,23
	c5.3,5.8,11.7,9,18.8,11.7c3.7,1.4,7.2,3.4,10.5,5.6c3.6,2.5,5.4,6.2,5.2,10.8c-0.2,4.2-0.3,8.4,0.1,12.5c0.5,5.5-2.4,8.6-7.1,10
	c-5.5,1.6-9.8,4.1-13.8,8.6c-7.2,8.1-20.2,6.4-27.3-2.1c-1.3-1.6-4-3-6-3c-22.2-0.2-44.3-0.2-66.5,0c-2.1,0-4.7,1.4-6.1,3
	c-8.7,10.2-22.5,9.8-30.4-1c-1.3-1.8-3.6-3.2-5.8-3.9c-7.1-2.4-9.9-5.3-9.5-12c4.2,1.2,8,2.4,12.2,3.6c2.5-9.9,8.6-16.3,19.5-16.1
	c9.4,0.2,14.4,5.5,18.2,18c23.3,0,46.7,0,70.5,0c1.7-10.6,7.5-17.8,18.6-18c10.5-0.2,16.7,6.3,19,17.7c2.6-1.8,5.6-2.7,6.1-4.4
	c0.7-2.3,1.9-5.8-2.8-7.1c-2.3-0.6-0.8-6.7,2.2-8.4c-0.8-0.9-1.4-2-2.3-2.5c-9.3-4.3-18.1-9.8-28.9-9.7c-13.8,0.2-27.7,0.1-41.5,0.1
	c-1.8,0-3.6,0-5.9,0c0-8.5-0.2-16.5,0.2-24.4c0.1-1.3,2.4-3.4,3.8-3.4c1.3,0,3.5,2.1,3.7,3.5c0.5,4.3,0,8.7,0.4,13
	c0.1,1.2,1.9,3.3,2.9,3.3c11.4,0.2,22.9,0.1,35.8,0.1c-3.1-3.3-5.3-5.6-7.5-7.9c-4.4-4.3-9.2-8.3-13.1-13
	c-5.5-6.5-12.3-8.4-20.4-8.4c-26.7,0.1-53.3,0-80,0C511.3-82.1,509.2-82.1,506.3-82.1z M533.6-2c5.5,0,10.2-4.5,10.4-9.9
	c0.2-5.6-4.6-10.6-10.3-10.6c-5.4,0-10.2,4.6-10.4,10C523.2-7,528-2.1,533.6-2z M641.8-22.5c-5.4,0-10.2,4.8-10.3,10.2
	c-0.1,5.5,5.1,10.4,10.8,10.2c5.5-0.2,10.1-5,9.9-10.5C652.2-18,647.4-22.6,641.8-22.5z"/>
<path d="M811.5,162.3c-18.5,0-36.9,0-55.4,0c-1.7,0-3.6,0.3-4.9-0.4c-1.4-0.7-3.1-2.4-3.1-3.7c0-1.3,1.8-2.8,3.1-3.8
	c0.8-0.6,2.3-0.2,3.4-0.2c37.8,0,75.6,0,113.3,0c1,0,2.2-0.4,2.9,0.1c1.5,1,3.9,2.7,3.7,3.6c-0.3,1.6-2.2,3.2-3.8,4.1
	c-1.1,0.7-2.9,0.2-4.4,0.2C848.1,162.4,829.8,162.3,811.5,162.3z"/>
<path d="M863.4,364.3c15.8,0,31.6,0,47.4,0c2.9,0,6.2-0.3,6.4,3.8c0.2,4.3-3.3,4.4-6.4,4.4c-31.8,0-63.6,0-95.4,0
	c-0.8,0-1.9,0.2-2.4-0.2c-1.5-1.3-2.7-2.8-4-4.3c1.5-1.2,2.9-3.5,4.4-3.6c8.8-0.3,17.6-0.2,26.5-0.2
	C847.8,364.3,855.6,364.3,863.4,364.3z"/>
<path d="M446.9,160.9c-16,0-32,0-48,0c-3,0-6.2,0-6.2-3.9c0-3.9,3.1-4.1,6.1-4.1c32,0,64,0,96,0c3,0,6.2-0.1,6.2,3.9
	c0,3.9-3.1,4.1-6.1,4.1C478.9,160.9,462.9,160.9,446.9,160.9z"/>
<path d="M799.9-56.1c-15.3,0-30.6,0-45.9,0c-2.9,0-6.6,0.7-6.7-3.8c-0.1-4.4,3.4-4.2,6.5-4.1c30.8,0,61.6-0.1,92.3,0.1
	c2.1,0,5.4,1.4,5.9,2.9c1.3,4-1.7,5-5.2,4.9C831.2-56.1,815.6-56.1,799.9-56.1z"/>
<g>
	<path class="st0" d="M75.7,27.2c-9.5,0-18.9,0-28.3,0c0,1.5,0.8,2,2.2,1.8c1.1-0.1,2.2,0,3.4,0c0,0.8,0,1.4,0,2.4
		c-1.3,0-2.7,0-4.1,0c-0.4,0-1,0.3-1.1,0.6c-1,2.3-2.6,3.6-5.1,3.6c-2.6,0.1-4.2-1.4-5.4-3.8c-0.3,0.4-0.5,0.7-0.7,1
		c-1.1,1.9-2.8,2.9-5.1,2.8c-2.2-0.1-3.9-1.2-4.7-3.3c-0.3-0.8-0.8-1-1.5-1c-2.4,0-4.8,0-7.2,0c0-0.8,0-1.4,0-2.4
		c2.3,0,4.6-0.1,6.9,0c1.3,0.1,2-0.4,2.1-1.8c-2.9,0-5.9,0-8.9,0c0-0.8,0-1.5,0-2.4c23.5,0,47.1,0,70.8,0c0-6.9,0-13.6,0-20.4
		c-0.5,0-1-0.1-1.6-0.1c-21.8,0-43.5,0-65.3,0c-0.7,0-1.5-0.2-1.9,0.9c-0.1,0.3-1.3,0.2-2.1,0.3c0-1.3,0-2.3,0-3.5
		c24.4,0,48.8,0,73.2,0c0,8.4,0,16.7,0,25.1c-2,0-3.8,0-5.8,0c0.1,1.4,0.6,2,2,1.9c2.8-0.1,5.6,0,8.6,0c-0.1-0.5-0.1-0.9-0.3-1.1
		c-1.4-2.2-1.4-4.7-1.4-7.2c0.1-5.5,0-10.9,0-16.4c0-0.5,0.1-1,0.1-1.5c6.9-0.2,12.6,2,16.8,7.4c0.8,1,0.9,2.7,1.4,4
		c0.5,1.7,0.4,3.7,2.1,4.9c0.3,0.2,0.3,0.9,0.3,1.4c0,2.4,0,4.8,0,7.1c0,2.4-1.2,3.7-3.7,3.6c-1.6-0.1-2.6,0.2-3.3,1.8
		c-0.9,1.9-2.8,2.6-4.9,2.5c-2.1-0.1-3.7-1.2-4.5-3.1c-0.4-0.9-0.9-1.2-1.9-1.2c-3.2,0.1-6.4,0-9.7,0.1c-0.5,0-1.2,0.4-1.4,0.7
		c-1,3-4.6,4.3-7.4,3.1c-2.8-1.2-3.8-4.1-2.7-7.5C75.7,27.6,75.7,27.5,75.7,27.2z M96.9,5.3c-0.1,0.3-0.1,0.5-0.1,0.8
		c0,5.9-0.1,11.8,0.1,17.7c0,1.3,0.9,2.7,1.5,4.2c0.4-0.6,0.6-0.8,0.8-1c2.4-3.2,7.3-3,9.1,0.5c0.8,1.5,1.7,1.6,3,1.5
		c1.2,0,1.6-0.6,1.4-1.8c-0.5-0.1-0.9-0.2-1.3-0.2c0-0.8,0-1.4,0-2.2c1.2,0.1,1.4-0.6,1.4-1.6c0-2.3,0-2.3-2.3-2.6
		c-2.7-0.4-5.4-0.9-8.1-1.3c0-1.9,0-3.6,0-5.4c0.8,0,1.4,0,2.3,0c0,0.9-0.1,1.6,0,2.4c0.1,0.4,0.4,1,0.7,1c1.8,0.4,3.7,0.6,5.7,1
		c-0.5-1.9-0.9-3.7-1.3-5.4c-0.5-1.9-0.8-2.1-2.7-2.2c-2.5,0-4.9,0-7.4,0c0-0.9,0-1.5,0-2.4c2,0,3.9,0,5.8,0
		C102.9,6.4,100.1,5.5,96.9,5.3z M31.7,33.2c1.7,0,3-1.2,3.1-2.9c0.1-1.8-1.3-3.2-3-3.2c-1.7,0-3,1.3-3,3
		C28.7,31.8,30,33.2,31.7,33.2z M80.6,27.1c-1.6,0-3.1,1.3-3.1,3c-0.1,1.6,1.3,3.1,2.9,3.1c1.7,0.1,3.2-1.3,3.2-3
		C83.6,28.5,82.2,27.2,80.6,27.1z M106.5,30.1c0-1.7-1.4-3-3.1-3c-1.7,0-3.1,1.5-3.1,3.2c0.1,1.6,1.5,3,3.1,2.9
		C105.2,33.2,106.6,31.8,106.5,30.1z M42.5,33.2c1.7,0,3.1-1.4,3.1-3.1c0-1.7-1.4-3-3-3c-1.7,0-3.1,1.3-3.1,3.1
		C39.5,31.9,40.8,33.2,42.5,33.2z"/>
	<path class="st0" d="M31.9,13.8c9.4,0,18.7,0,28.1,0c0.4,0,1-0.1,1.3,0.1c0.4,0.3,0.9,0.8,0.9,1.3c0,0.3-0.6,0.7-1,1
		c-0.3,0.1-0.7,0-1,0c-18.8,0-37.6,0-56.3,0c-0.3,0-0.8,0.1-1,0c-0.4-0.2-1.1-0.7-1-1c0-0.5,0.5-1,0.9-1.3c0.4-0.2,1-0.1,1.5-0.1
		C13.3,13.8,22.6,13.8,31.9,13.8z"/>
	<path class="st0" d="M30.5,7.8c5.6,0,11.3,0,16.9,0c0.5,0,1.1-0.1,1.5,0.1C49.4,8.1,50,8.6,50,9c0,0.4-0.6,0.9-1,1.1
		c-0.3,0.2-0.8,0.1-1.2,0.1c-11.5,0-23,0-34.5,0c-0.9,0-2.4,0.5-2.4-1.2c0-1.7,1.4-1.2,2.4-1.2C19,7.8,24.8,7.8,30.5,7.8z"/>
	<path class="st0" d="M26.4,22.1c-3.6,0-7.2,0-10.8,0c-0.9,0-1.8,0-1.8-1.2c0-1.1,0.9-1.2,1.7-1.2c7.3,0,14.6,0,22,0
		c0.9,0,1.8,0.1,1.8,1.2c0,1.2-1,1.1-1.9,1.1C33.8,22.1,30.1,22.1,26.4,22.1z"/>
</g>
<path d="M807.9,142.2c-11.7,0-23.3,0-35,0c-2.9,0-6.2,0-6.3-3.9c-0.1-3.9,3.1-4.1,6.1-4.1c23.8,0,47.6,0,71.4,0
	c2.9,0,5.7,0.3,5.7,3.9c0,3.5-2.6,4.1-5.6,4.1C832.2,142.2,820,142.2,807.9,142.2z"/>
<path d="M495.8-53.3c10.7,0,21.3,0,32,0c3,0,6.2,0.2,6.1,4.1c-0.1,3.8-3.3,4-6.3,4c-21.1,0-42.3,0-63.4,0c-0.7,0-1.5,0.3-2-0.1
	c-1.6-1.3-3.1-2.7-4.6-4.1c1.6-1.3,3.2-3.6,4.9-3.7C473.5-53.5,484.6-53.3,495.8-53.3C495.8-53.3,495.8-53.3,495.8-53.3z"/>
<path d="M444.1,140.8c-10,0-19.9,0-29.9,0c-3,0-5.5-0.5-5.5-4.1c0-3.4,2.5-3.8,5.2-3.8c20.3,0,40.6,0,60.8,0c2.8,0,5.2,0.5,5.2,3.8
	c0,3.6-2.5,4.1-5.5,4.1C464.4,140.8,454.2,140.8,444.1,140.8z"/>
<path d="M860.9,344.2c9.8,0,19.7,0,29.5,0c2.9,0,5.7,0.3,5.8,3.8c0.1,4-2.9,4.2-5.9,4.2c-19.8,0-39.6,0-59.5,0
	c-2.8,0-5.8-0.3-5.9-3.8c-0.1-3.8,2.9-4.2,6-4.2C841,344.3,850.9,344.2,860.9,344.2z"/>
<path d="M797-76.2c-9.7,0-19.3-0.1-29,0c-3,0-5.6-0.6-5.5-4.1c0.1-3.2,2.6-3.8,5.4-3.8c19.6,0,39.3-0.1,58.9,0.2
	c1.8,0,4.8,2.2,5.1,3.8c0.6,3.1-2.1,3.9-5,3.9C817-76.2,807-76.2,797-76.2z"/>
<path d="M800.4,174.4c7.3,0,14.6,0,21.9,0c2.9,0,5.7,0.6,5.7,4c-0.1,3.3-2.8,4.1-5.8,4.1c-14.6,0-29.2,0-43.9,0
	c-2.9,0-5.6-0.8-5.6-4.2c0-3.6,2.9-3.9,5.8-3.9C785.8,174.4,793.1,174.4,800.4,174.4z"/>
<path d="M854.4,384.1c5.8,0,11.6-0.1,17.5,0c3,0,6,0.6,5.8,4.5c-0.2,3.6-3.1,3.9-5.9,3.9c-12,0-24,0-35.9,0c-2.8,0-5.7-0.5-5.9-4
	c-0.1-3.7,2.9-4.4,5.9-4.4C842,384.1,848.2,384.1,854.4,384.1z"/>
<path d="M493.9-65.2c-6.6,0-13.3,0-19.9,0c-2.8,0-5.6,0-5.5-3.9c0.1-3.5,2.6-3.8,5.2-3.8c13.5,0,26.9,0,40.4,0
	c2.7,0,5.2,0.5,5.3,3.8c0.1,3.8-2.7,4-5.6,3.9C507.2-65.2,500.5-65.2,493.9-65.2z"/>
<path d="M437.6,180.9c-6.3,0-12.6-0.1-19,0c-3,0-5.3-1.2-4.8-4.2c0.3-1.5,3.1-3.5,4.8-3.6c12.6-0.3,25.3-0.1,37.9-0.2
	c2.9,0,5.4,1.1,4.7,4.2c-0.3,1.5-3,3.4-4.7,3.6C450.2,181.1,443.9,180.9,437.6,180.9z"/>
<path d="M790.8-36c-6.1,0-12.3,0.3-18.4-0.2c-1.7-0.1-4.3-2.1-4.6-3.6c-0.6-3,1.8-4.2,4.7-4.2c12.3,0,24.6-0.1,36.8,0.2
	c1.6,0,4.3,2.2,4.6,3.7c0.6,3-1.8,4.1-4.8,4.1C803-36.1,796.9-36,790.8-36z"/>
<path d="M489.1-26c-4.3,0-8.7,0.3-12.9-0.2c-1.6-0.2-2.9-2.2-4.4-3.4c1.4-1.3,2.7-3.8,4.1-3.8c8.9-0.4,17.9-0.4,26.8,0
	c1.5,0.1,2.8,2.5,4.3,3.8c-1.5,1.2-2.9,3.3-4.5,3.5C498-25.7,493.5-26,489.1-26z"/>
<path class="st1" d="M1070.4,180.5c0,5.2,0,9.5,0,14c-2,0.2-3.7,0.4-5.7,0.6c0,2.5,0,4.7,0,7.3c1.9,0.2,3.6,0.4,5.5,0.6
	c0.5,3.4-1,4.9-4,5c-4.7,0.2-8.9,0.8-11.6-5.3c-2.9-6.8-9.6-9.4-17.1-8.8c-6.9,0.5-11.8,4.2-15,10.2c-0.7,1.3-1.2,2.6-2.8,3.6
	c0-21,0-41.9,0-63.6c8.2,0,16.4,0.1,24.7,0c15.7-0.1,14-0.6,17.7,13.9c1.1,4.5,2.2,9,3.5,14.3c-6.6,0-12.5,0-18.4,0
	c-1.7,0-3.6-0.5-4.9,0.2c-1.7,0.8-2.9,2.5-4.4,3.9c1.5,1.4,3,3.8,4.6,3.9c7.3,0.4,14.6,0.2,22,0.2
	C1066.4,180.5,1068.2,180.5,1070.4,180.5z"/>
<path class="st1" d="M1049.5,212.2c0,5.6-5.1,10.6-10.5,10.5c-5.3-0.1-10.1-5.1-10.1-10.4c0-5.5,5.1-10.5,10.6-10.4
	C1044.9,202.1,1049.5,206.8,1049.5,212.2z"/>
<path class="st1" d="M861.3,222.6c-5.5,0.1-10.4-4.9-10.3-10.6c0.1-5.4,4.8-10.2,10.2-10.2c5.5,0,10.1,4.5,10.3,10
	C871.7,217.5,866.9,222.6,861.3,222.6z"/>
<path class="st1" d="M817.1,212.3c-0.1-5.7,4.2-10.3,9.8-10.4c5.6-0.2,10.6,4.8,10.6,10.4c-0.1,5.3-5.1,10.3-10.3,10.3
	C821.8,222.6,817.2,217.9,817.1,212.3z"/>
<path class="st1" d="M976.4,212.1c0.1,5.3-4.7,10.4-10,10.5c-5.5,0.2-10.5-4.9-10.5-10.5c0.1-5.6,4.7-10.2,10.2-10.2
	C971.6,201.9,976.4,206.7,976.4,212.1z"/>
<path class="st1" d="M574.2,206.1c0-21.1,0-42,0-63.3c12.6,0,24.9-0.1,37.2,0.2c1.6,0,4.1,2,4.5,3.6c2.4,8.4,4.3,17,6.5,26.2
	c-8.2,0-16,0-23.8,0c-2.8,0-6.1-0.3-6.1,3.9c0,4.1,3.1,4,6,4c10.8,0,21.6,0,32.7,0c0,4.3,0,8.2,0,12.5c-1.6,0.3-3.4,0.6-5.5,1
	c0,2.2,0,4.4,0,7c1.7,0.3,3.5,0.5,6.9,1.1c-1.9,1.9-2.9,3.8-4.3,4.2c-5.8,1.5-8.6,0-11.7-5.3c-7-11.8-25-12-31.3,0.2
	C582.6,206.5,579.6,207.4,574.2,206.1z"/>
<path class="st1" d="M488.4,198c25.7,0,51.2,0,77.1,0c0,2.9,0,5.4,0,8.7c-2.2,0-4.1,0-6.1,0c-19.5,0-38.9-0.3-58.4,0.2
	C494.2,207,489.9,205.5,488.4,198z"/>
<path class="st1" d="M600.9,200.4c5.3,0,10.2,4.8,10.4,10.1c0.1,5.4-5,10.5-10.5,10.5c-5.5-0.1-10.1-4.6-10.3-10.1
	C590.4,205.3,595.3,200.3,600.9,200.4z"/>
<path class="st1" d="M484.2,210.5c0.1,5.4-4.5,10.2-9.9,10.4c-5.5,0.2-10.7-4.6-10.8-10.1c-0.1-5.6,4.8-10.5,10.5-10.4
	C479.3,200.4,484.1,205.1,484.2,210.5z"/>
<path class="st1" d="M994.8,425.2c0-20.8,0-40.9,0-62c3,0,5.9,0,8.8,0c6.3,0,12.7,0,19,0c5.1,0,8.8,2,11.1,6.9
	c2.9,6.1,6.1,12.1,9.7,19c-8.4,0-15.8,0-23.3,0c-1.8,0-3.7,0.1-5.5,0c-2.9-0.1-5.4,1-4.8,4.1c0.3,1.5,3,3.6,4.7,3.7
	c9,0.4,18,0.7,27,0c8.2-0.6,13.1,4.3,19.5,8.9c-2.2,0.6-3.5,1-5.2,1.4c0,2.2,0,4.4,0,7c2.1,0.2,4.2,0.5,6.8,0.8
	c0,1.9,0.3,3.8-0.1,5.5c-0.4,1.6-1.2,3.9-2.4,4.4c-2.2,0.9-4,0-5.3-2.8c-5.7-12.4-20.9-15.1-30.2-5.6c-0.9,0.9-2.1,2-2.4,3.2
	c-1.4,5.5-5.2,5.8-9.9,5.5C1006.8,424.9,1001.1,425.2,994.8,425.2z"/>
<path class="st1" d="M986.4,419c0,2.1,0,3.7,0,5.9c-1.8,0.1-3.6,0.3-5.3,0.3c-20,0-40-0.1-59.9,0.1c-4.7,0.1-6.7-1.7-7-6.3
	C938,419,961.9,419,986.4,419z"/>
<path class="st1" d="M908.3,429.4c-0.1,5.4-5.5,10.4-10.8,10.2c-5.4-0.2-10-5.2-9.9-10.5c0.1-5.5,5.3-10.5,10.7-10.2
	C903.6,419.1,908.4,424.2,908.3,429.4z"/>
<path class="st1" d="M1048.4,429c0.2,5.3-4.5,10.3-10,10.6c-5.3,0.3-10.4-4.4-10.8-9.8c-0.3-5.5,4.6-10.8,10.2-10.9
	C1043.1,418.8,1048.2,423.7,1048.4,429z"/>
<path class="st1" d="M990.8-28.3c-6.3,0.2-3.7,4.5-4.1,7.8c1.6,0.4,3,0.7,5.1,1.2c-0.4,2-0.3,4.3-1.4,5.5c-2.5,2.8-8.5,1.3-10.1-2.1
	c-3.1-6.4-8.1-10-15.4-10c-7.2,0-12.5,3.4-15.2,10c-1.2,2.9-2.7,3.6-5.6,3.6c-7.3-0.1-14.6,0-22.4,0c-0.1-2.2-0.3-4-0.3-5.7
	c0.1-14.8,0.4-29.6,0.1-44.4c-0.1-4.9,1.6-6.2,6-5.7c2.1,0.2,4.4,0.4,6.5,0c14.7-2.6,20.9,8.5,30,18c-7.1,0-12.8,0-18.6,0
	c-2.8,0-5.7,0-5.9,3.7c-0.1,4,2.9,4.2,5.9,4.2c3.8,0,7.7,0.4,11.5-0.1c11.5-1.6,21.2,2.1,30,9c1.5,1.2,3.3,2.1,5,3.1
	C991.5-29.6,991.2-28.9,990.8-28.3z"/>
<path class="st1" d="M913.2-18.8c0,2.3,0,4.1,0,6.4c-3.3,0-6.2,0-9.2,0c-15,0-30-0.2-45,0.1c-4.8,0.1-7-1.6-7.5-6.5
	C872-18.8,892.4-18.8,913.2-18.8z"/>
<path class="st1" d="M845.4-9.5c0.1,4.6-3.7,8.7-8.4,8.8c-4.8,0.1-8.6-3.6-8.8-8.3c-0.1-4.7,3.5-8.7,8.3-8.8
	C841.1-18,845.3-14.1,845.4-9.5z"/>
<path class="st1" d="M964.6-0.8c-4.6-0.1-8.6-4.2-8.4-8.8c0.2-4.7,4.2-8.4,8.9-8.3c4.7,0.1,8.5,4.2,8.3,8.8
	C973.3-4.3,969.4-0.6,964.6-0.8z"/>
<path class="st1" d="M533.6-2c-5.7,0-10.5-5-10.3-10.6c0.2-5.4,5-10,10.4-10c5.6,0,10.4,5,10.3,10.6C543.8-6.5,539.1-2,533.6-2z"/>
<path class="st1" d="M641.8-22.5c5.6,0,10.3,4.5,10.4,10c0.1,5.5-4.5,10.3-9.9,10.5c-5.7,0.2-10.8-4.7-10.8-10.2
	C631.6-17.7,636.4-22.5,641.8-22.5z"/>
<g>
	<path class="st2" d="M0.5,39.9h4.7c1.4,0,2.1,0.6,2.1,1.9v3.5c0,0.8-0.3,1.2-0.9,1.4c0.6,0.1,0.9,0.6,0.9,1.3v3.7
		c0,1.3-0.7,1.9-2.1,1.9H0.5V39.9z M5.3,45.2V42c0-0.3,0-0.4-0.1-0.5c-0.1-0.1-0.3-0.1-0.5-0.1H2.5v4.4h2.2c0.3,0,0.4,0,0.5-0.1
		C5.3,45.6,5.3,45.4,5.3,45.2z M5.3,51.3V48c0-0.3,0-0.4-0.1-0.5c-0.1-0.1-0.3-0.1-0.5-0.1H2.5V52h2.2c0.3,0,0.4,0,0.5-0.1
		C5.3,51.8,5.3,51.6,5.3,51.3z"/>
	<path class="st2" d="M13.9,39.9h2v11.8c0,1.3-0.7,1.9-2.1,1.9h-2.4c-1.4,0-2.1-0.6-2.1-1.9V39.9h2v11.4c0,0.3,0,0.4,0.1,0.5
		c0.1,0.1,0.3,0.1,0.5,0.1h1.2c0.3,0,0.5,0,0.5-0.1c0.1-0.1,0.1-0.3,0.1-0.5V39.9z"/>
	<path class="st2" d="M20.1,48v5.5h-2V39.9h4.5c1.4,0,2,0.6,2,1.9v4.3c0,1.1-0.5,1.7-1.5,1.9l2.2,5.6h-2.1L21.1,48H20.1z M20.1,41.5
		v5H22c0.3,0,0.4,0,0.5-0.1c0.1-0.1,0.1-0.3,0.1-0.5v-3.7c0-0.3,0-0.4-0.1-0.5c-0.1-0.1-0.3-0.1-0.5-0.1H20.1z"/>
	<path class="st2" d="M26.8,39.9h4.7c1.4,0,2.1,0.6,2.1,1.9v3.5c0,0.8-0.3,1.2-0.9,1.4c0.6,0.1,0.9,0.6,0.9,1.3v3.7
		c0,1.3-0.7,1.9-2.1,1.9h-4.7V39.9z M31.6,45.2V42c0-0.3,0-0.4-0.1-0.5c-0.1-0.1-0.3-0.1-0.5-0.1h-2.2v4.4h2.2c0.3,0,0.4,0,0.5-0.1
		C31.5,45.6,31.6,45.4,31.6,45.2z M31.6,51.3V48c0-0.3,0-0.4-0.1-0.5c-0.1-0.1-0.3-0.1-0.5-0.1h-2.2V52h2.2c0.3,0,0.4,0,0.5-0.1
		C31.5,51.8,31.6,51.6,31.6,51.3z"/>
	<path class="st2" d="M40.7,53.5l-0.5-3.2h-2.9l-0.5,3.2h-2l2.4-13.7h2.9l2.6,13.7H40.7z M37.5,48.8h2.4l-1.2-7.2L37.5,48.8z"/>
	<path class="st2" d="M49,39.9h1.8v13.7h-2l-2.9-9.9v9.9h-1.8V39.9h2.1l2.8,9.6V39.9z"/>
	<path class="st2" d="M53.1,53.5V39.9h2v13.7H53.1z M60.1,39.9l-2.9,6.9l2.9,6.8h-2.1l-2.8-6.8l2.8-6.9H60.1z"/>
	<path class="st2" d="M66.3,53.5h-1.7V39.9h2.2l2.3,8.5l2.3-8.5h2.2v13.7h-1.7v-10l-1.9,7h-1.8l-1.9-7V53.5z"/>
	<path class="st2" d="M77.8,39.9h2.4c1.4,0,2,0.6,2,1.9v9.8c0,1.3-0.7,1.9-2,1.9h-2.4c-1.4,0-2.1-0.6-2.1-1.9v-9.8
		C75.8,40.5,76.5,39.9,77.8,39.9z M80.3,51.3v-9.2c0-0.3,0-0.4-0.1-0.5c-0.1-0.1-0.3-0.1-0.5-0.1h-1.3c-0.3,0-0.4,0-0.5,0.1
		c-0.1,0.1-0.1,0.3-0.1,0.5v9.2c0,0.3,0,0.4,0.1,0.5c0.1,0.1,0.3,0.1,0.5,0.1h1.3c0.3,0,0.4,0,0.5-0.1
		C80.3,51.7,80.3,51.6,80.3,51.3z"/>
	<path class="st2" d="M89.1,39.9h2l-2.5,13.7h-2.8l-2.5-13.7h2l1.8,11.9L89.1,39.9z"/>
	<path class="st2" d="M94.4,51.9h4v1.6h-5.9V39.9h5.8v1.6h-3.8v4.2h3.1v1.6h-3.1V51.9z"/>
	<path class="st2" d="M101.9,48v5.5h-2V39.9h4.5c1.4,0,2,0.6,2,1.9v4.3c0,1.1-0.5,1.7-1.5,1.9l2.2,5.6H105l-2.1-5.5H101.9z
		 M101.9,41.5v5h1.9c0.3,0,0.4,0,0.5-0.1c0.1-0.1,0.1-0.3,0.1-0.5v-3.7c0-0.3,0-0.4-0.1-0.5c-0.1-0.1-0.3-0.1-0.5-0.1H101.9z"/>
	<path class="st2" d="M112.5,51.3V48c0-0.3,0-0.4-0.1-0.5c-0.1-0.1-0.3-0.1-0.5-0.1h-1.6c-1.3,0-2-0.6-2-1.9v-3.6
		c0-1.3,0.7-1.9,2-1.9h2.1c1.4,0,2,0.6,2,1.9v2h-2v-1.7c0-0.3,0-0.4-0.1-0.5c-0.1-0.1-0.3-0.1-0.5-0.1h-0.9c-0.3,0-0.4,0-0.5,0.1
		c-0.1,0.1-0.1,0.3-0.1,0.5v3c0,0.3,0,0.4,0.1,0.5c0.1,0.1,0.3,0.1,0.5,0.1h1.6c1.3,0,2,0.6,2,1.9v3.9c0,1.3-0.7,1.9-2.1,1.9h-2.1
		c-1.4,0-2-0.6-2-1.9v-2h2v1.7c0,0.3,0,0.4,0.1,0.5s0.3,0.1,0.5,0.1h0.9c0.3,0,0.4,0,0.5-0.1S112.5,51.6,112.5,51.3z"/>
</g>
</svg>
