<?xml version="1.0" encoding="utf-8"?>
<!-- Generator: Adobe Illustrator 24.1.2, SVG Export Plug-In . SVG Version: 6.00 Build 0)  -->
<svg version="1.1" id="Layer_1" xmlns="http://www.w3.org/2000/svg" xmlns:xlink="http://www.w3.org/1999/xlink" x="0px" y="0px"
	 viewBox="0 0 80 38" style="enable-background:new 0 0 80 38;" xml:space="preserve">
<style type="text/css">
	.st0{fill:#E63E25;}
	.st1{fill:#1F1F5A;}
</style>
<g>
	<path class="st0" d="M52,18.7c-6.5,0-13.1,0-19.6,0c0,1,0.6,1.3,1.5,1.3c0.8-0.1,1.5,0,2.4,0c0,0.6,0,1,0,1.6c-0.9,0-1.9,0-2.9,0
		c-0.3,0-0.7,0.2-0.8,0.4c-0.7,1.6-1.8,2.5-3.6,2.5c-1.8,0.1-2.9-0.9-3.8-2.6c-0.2,0.3-0.3,0.5-0.5,0.7c-0.8,1.3-2,2-3.5,2
		c-1.5-0.1-2.6-0.8-3.3-2.3c-0.2-0.6-0.5-0.7-1-0.7c-1.7,0-3.3,0-5,0c0-0.6,0-1,0-1.6c1.6,0,3.2-0.1,4.7,0c0.9,0.1,1.3-0.3,1.5-1.3
		c-2,0-4,0-6.2,0c0-0.6,0-1,0-1.7c16.3,0,32.7,0,49.1,0c0-4.8,0-9.4,0-14.1c-0.3,0-0.7-0.1-1.1-0.1c-15.1,0-30.2,0-45.3,0
		c-0.5,0-1-0.1-1.3,0.6c-0.1,0.2-0.9,0.1-1.5,0.2c0-0.9,0-1.6,0-2.4c16.9,0,33.8,0,50.8,0c0,5.8,0,11.6,0,17.4c-1.3,0-2.6,0-4,0
		c0.1,1,0.4,1.4,1.4,1.3c2-0.1,3.9,0,5.9,0c-0.1-0.3-0.1-0.6-0.2-0.8c-1-1.5-1-3.2-1-4.9c0.1-3.8,0-7.6,0-11.4c0-0.3,0-0.7,0.1-1
		c4.8-0.1,8.7,1.4,11.7,5.1c0.6,0.7,0.6,1.9,0.9,2.8c0.3,1.2,0.3,2.5,1.5,3.4c0.2,0.1,0.2,0.6,0.2,1c0,1.7,0,3.3,0,4.9
		s-0.8,2.6-2.5,2.5c-1.1-0.1-1.7,0.1-2.3,1.3c-0.6,1.3-2,1.8-3.4,1.7c-1.5-0.1-2.6-0.8-3.1-2.2c-0.3-0.6-0.6-0.8-1.3-0.8
		c-2.2,0.1-4.5,0-6.7,0.1c-0.3,0-0.8,0.2-1,0.5c-0.7,2.1-3.1,3-5.1,2.2c-2-0.8-2.6-2.9-1.9-5.2C52,19,52,18.9,52,18.7z M66.7,3.5
		c-0.1,0.2-0.1,0.3-0.1,0.6c0,4.1-0.1,8.1,0.1,12.3c0,0.9,0.6,1.9,1,2.9c0.3-0.4,0.4-0.6,0.6-0.7c1.6-2.2,5.1-2.1,6.3,0.3
		c0.6,1,1.2,1.1,2.1,1c0.8,0,1.1-0.4,1-1.3c-0.3-0.1-0.6-0.1-0.9-0.1c0-0.6,0-1,0-1.5c0.8,0.1,1-0.4,1-1.1c0-1.5,0-1.5-1.5-1.8
		c-1.9-0.3-3.7-0.6-5.6-0.9c0-1.3,0-2.5,0-3.8c0.6,0,1,0,1.6,0c0,0.6-0.1,1.1,0,1.7c0.1,0.3,0.3,0.6,0.5,0.7c1.3,0.3,2.6,0.4,4,0.7
		c-0.3-1.3-0.6-2.5-0.9-3.8c-0.3-1.3-0.6-1.5-1.9-1.5c-1.7,0-3.4,0-5.2,0c0-0.6,0-1,0-1.6c1.4,0,2.7,0,4,0
		C70.8,4.3,68.9,3.7,66.7,3.5z M21.5,22.9c1.2,0,2.1-0.8,2.2-2c0.1-1.2-0.9-2.2-2.1-2.2s-2.1,0.9-2.1,2.1
		C19.4,22,20.3,22.9,21.5,22.9z M55.4,18.7c-1.1,0-2.1,0.9-2.2,2c-0.1,1.1,0.9,2.2,2,2.2c1.2,0.1,2.2-0.9,2.2-2.1
		C57.5,19.7,56.5,18.7,55.4,18.7z M73.4,20.8c0-1.2-1-2.1-2.1-2.1c-1.2,0-2.2,1-2.2,2.2c0.1,1.1,1,2.1,2.2,2
		C72.4,22.9,73.4,21.9,73.4,20.8z M28.9,22.9c1.2,0,2.2-1,2.2-2.2c0-1.1-1-2.1-2.1-2.1c-1.2,0-2.2,0.9-2.2,2.2
		C26.8,22,27.8,22.9,28.9,22.9z"/>
	<path class="st0" d="M21.6,9.5c6.5,0,13,0,19.5,0c0.3,0,0.7-0.1,0.9,0.1c0.3,0.2,0.6,0.6,0.6,0.9c0,0.2-0.4,0.5-0.7,0.7
		c-0.2,0.1-0.5,0-0.7,0c-13,0-26,0-39.1,0c-0.2,0-0.6,0.1-0.7,0c-0.3-0.1-0.8-0.5-0.7-0.7c0-0.3,0.3-0.7,0.6-0.9
		c0.3-0.1,0.7-0.1,1-0.1C8.7,9.5,15.2,9.5,21.6,9.5z"/>
	<path class="st0" d="M20.7,5.4c3.9,0,7.8,0,11.8,0c0.3,0,0.8-0.1,1,0.1c0.3,0.1,0.7,0.5,0.8,0.8c0,0.3-0.4,0.6-0.7,0.8
		C33.4,7.1,33,7,32.7,7C24.8,7,16.8,7,8.9,7C8.2,7,7.2,7.4,7.2,6.2c0-1.1,1-0.8,1.6-0.8C12.7,5.3,16.7,5.4,20.7,5.4z"/>
	<path class="st0" d="M17.8,15.2c-2.5,0-5,0-7.5,0c-0.6,0-1.3,0-1.3-0.8c0-0.8,0.6-0.8,1.2-0.8c5.1,0,10.2,0,15.3,0
		c0.6,0,1.3,0.1,1.3,0.8c0,0.8-0.7,0.8-1.3,0.8C22.9,15.2,20.3,15.2,17.8,15.2z"/>
</g>
<g>
	<path class="st1" d="M0.6,27.5h3.3c1,0,1.4,0.4,1.4,1.3v2.4c0,0.6-0.2,0.8-0.6,0.9c0.4,0.1,0.6,0.4,0.6,0.9v2.6
		c0,0.9-0.5,1.3-1.4,1.3H0.6V27.5z M3.8,31.2V29c0-0.2,0-0.3-0.1-0.3c-0.1-0.1-0.2-0.1-0.3-0.1H1.9v3.1h1.5c0.2,0,0.3,0,0.3-0.1
		C3.8,31.5,3.8,31.4,3.8,31.2z M3.8,35.5v-2.3c0-0.2,0-0.3-0.1-0.3s-0.2-0.1-0.3-0.1H1.9V36h1.5c0.2,0,0.3,0,0.3-0.1
		C3.8,35.8,3.8,35.6,3.8,35.5z"/>
	<path class="st1" d="M9.8,27.5h1.4v8.1c0,0.9-0.5,1.3-1.4,1.3H8.2c-1,0-1.4-0.4-1.4-1.3v-8.1h1.4v7.9c0,0.2,0,0.3,0.1,0.3
		s0.2,0.1,0.3,0.1h0.8c0.2,0,0.3,0,0.3-0.1c0.1-0.1,0.1-0.2,0.1-0.3C9.8,35.4,9.8,27.5,9.8,27.5z"/>
	<path class="st1" d="M14.1,33.1V37h-1.4v-9.5h3.1c0.9,0,1.4,0.4,1.4,1.3v3c0,0.8-0.3,1.2-1,1.3l1.5,3.8h-1.5l-1.4-3.8H14.1z
		 M14.1,28.6v3.5h1.3c0.2,0,0.3,0,0.3-0.1s0.1-0.2,0.1-0.3v-2.6c0-0.2,0-0.3-0.1-0.3c-0.1-0.1-0.2-0.1-0.3-0.1L14.1,28.6L14.1,28.6z
		"/>
	<path class="st1" d="M18.7,27.5H22c1,0,1.4,0.4,1.4,1.3v2.4c0,0.6-0.2,0.8-0.6,0.9c0.4,0.1,0.6,0.4,0.6,0.9v2.6
		c0,0.9-0.5,1.3-1.4,1.3h-3.3C18.7,37,18.7,27.5,18.7,27.5z M22.1,31.2V29c0-0.2,0-0.3-0.1-0.3c-0.1-0.1-0.2-0.1-0.3-0.1h-1.5v3.1
		h1.5c0.2,0,0.3,0,0.3-0.1C22,31.5,22.1,31.4,22.1,31.2z M22.1,35.5v-2.3c0-0.2,0-0.3-0.1-0.3c-0.1-0.1-0.2-0.1-0.3-0.1h-1.5V36h1.5
		c0.2,0,0.3,0,0.3-0.1C22,35.8,22.1,35.6,22.1,35.5z"/>
	<path class="st1" d="M28.4,37l-0.3-2.2h-2L25.7,37h-1.4l1.7-9.5h2l1.8,9.5C29.8,37,28.4,37,28.4,37z M26.2,33.7h1.7l-0.8-5
		L26.2,33.7z"/>
	<path class="st1" d="M34.1,27.5h1.3V37H34l-2-6.8V37h-1.3v-9.5h1.5l2,6.6L34.1,27.5L34.1,27.5z"/>
	<path class="st1" d="M37,37v-9.5h1.4V37C38.4,37,37,37,37,37z M41.9,27.5l-2,4.8l2,4.7h-1.5l-1.9-4.7l2-4.7L41.9,27.5L41.9,27.5z"
		/>
	<path class="st1" d="M46.2,37H45v-9.5h1.5l1.6,5.9l1.6-5.9h1.5V37h-1.2v-7l-1.3,4.9h-1.3L46.2,30V37z"/>
	<path class="st1" d="M54.1,27.5h1.7c0.9,0,1.4,0.4,1.4,1.3v6.8c0,0.9-0.5,1.3-1.4,1.3h-1.7c-1,0-1.4-0.4-1.4-1.3v-6.8
		C52.7,28,53.2,27.5,54.1,27.5z M55.9,35.4V29c0-0.2,0-0.3-0.1-0.3c-0.1-0.1-0.2-0.1-0.3-0.1h-0.9c-0.2,0-0.3,0-0.3,0.1
		c-0.1,0.1-0.1,0.1-0.1,0.3v6.4c0,0.2,0,0.3,0.1,0.3c0.1,0.1,0.1,0.1,0.3,0.1h0.9c0.2,0,0.3,0,0.3-0.1
		C55.9,35.8,55.9,35.6,55.9,35.4z"/>
	<path class="st1" d="M62,27.5h1.4L61.7,37h-2L58,27.5h1.4l1.3,8.2L62,27.5z"/>
	<path class="st1" d="M65.6,35.9h2.7V37h-4.1v-9.5h4v1.1h-2.6v2.9h2.2v1.1h-2.2V35.9z"/>
	<path class="st1" d="M70.8,33.1V37h-1.4v-9.5h3.1c0.9,0,1.4,0.4,1.4,1.3v3c0,0.8-0.3,1.2-1,1.3l1.5,3.8H73l-1.4-3.8H70.8z
		 M70.8,28.6v3.5h1.3c0.2,0,0.3,0,0.3-0.1s0.1-0.2,0.1-0.3v-2.6c0-0.2,0-0.3-0.1-0.3c-0.1-0.1-0.2-0.1-0.3-0.1L70.8,28.6L70.8,28.6z
		"/>
	<path class="st1" d="M78.2,35.4v-2.3c0-0.2,0-0.3-0.1-0.3c-0.1-0.1-0.1-0.1-0.3-0.1h-1.2c-0.9,0-1.4-0.4-1.4-1.3v-2.6
		c0-0.9,0.5-1.3,1.4-1.3h1.5c0.9,0,1.4,0.4,1.4,1.3v1.4h-1.4V29c0-0.2,0-0.3-0.1-0.3c-0.1-0.1-0.2-0.1-0.3-0.1H77
		c-0.2,0-0.3,0-0.3,0.1c-0.1,0.1-0.1,0.1-0.1,0.3v2.1c0,0.2,0,0.3,0.1,0.3c0.1,0.1,0.2,0.1,0.3,0.1h1.1c0.9,0,1.4,0.4,1.4,1.3v2.7
		c0,0.9-0.5,1.3-1.4,1.3h-1.5c-0.9,0-1.4-0.4-1.4-1.3v-1.4h1.4v1.2c0,0.2,0,0.3,0.1,0.3c0.1,0.1,0.2,0.1,0.3,0.1h0.6
		c0.2,0,0.3,0,0.3-0.1C78.2,35.8,78.2,35.6,78.2,35.4z"/>
</g>
</svg>
